<?xml version="1.0" encoding="UTF-8" standalone="no"?>
<!-- Created with Inkscape (http://www.inkscape.org/) -->

<svg
   xmlns:dc="http://purl.org/dc/elements/1.1/"
   xmlns:cc="http://creativecommons.org/ns#"
   xmlns:rdf="http://www.w3.org/1999/02/22-rdf-syntax-ns#"
   xmlns:svg="http://www.w3.org/2000/svg"
   xmlns="http://www.w3.org/2000/svg"
   xmlns:sodipodi="http://sodipodi.sourceforge.net/DTD/sodipodi-0.dtd"
   xmlns:inkscape="http://www.inkscape.org/namespaces/inkscape"
   version="1.1"
   id="svg64"
   width="2400"
   height="2400"
   viewBox="0 0 2400 2400"
   sodipodi:docname="insta-icon.svg"
   inkscape:version="0.92.4 (unknown)">
  <path
     style="stroke-width:1.33333337"
     d="m 215.6895,2366.4227 -0.3562,-33.5774 -7.2417,-5.0204 c -3.983,-2.7612 -7.7628,-5.9513 -8.3996,-7.0893 -0.6368,-1.1379 -1.8298,-2.0689 -2.6511,-2.0689 -0.8212,0 -26.4414,-25.1738 -56.9337,-55.9418 C 78.8159,2200.8796 76,2197.9551 76,2196.1472 c 0,-0.6921 -0.4749,-1.4583 -1.0552,-1.7028 C 74.3644,2194.2 72.1932,2191.75 70.1198,2189 l -3.7697,-5 H 33.1751 0 V 1200 216 h 33.1751 33.175 l 3.7697,-5 c 2.0734,-2.75 4.2446,-5.2 4.825,-5.44444 0.5803,-0.24445 1.0552,-1.01067 1.0552,-1.70272 0,-1.80796 2.8159,-4.73239 64.1072,-66.57777 30.4923,-30.76796 56.1125,-55.94174 56.9337,-55.94174 0.8213,0 2.0143,-0.93103 2.6511,-2.06896 0.6368,-1.13793 4.4166,-4.32813 8.3996,-7.08933 l 7.2417,-5.02036 0.3562,-33.57734 L 216.0458,0 H 1200 2183.9543 l 0.3561,33.57734 0.3563,33.57734 7.2417,5.02036 c 3.9829,2.7612 7.7628,5.9514 8.3996,7.08933 0.6368,1.13793 1.8267,2.06896 2.644,2.06896 1.7163,0 115.7147,114.3744 115.7147,116.0963 0,0.62877 1.2,1.78544 2.6666,2.57037 1.4667,0.78493 2.6667,2.25604 2.6667,3.26913 0,1.0131 0.4748,2.04198 1.0552,2.28643 0.5804,0.24444 2.7516,2.69444 4.8249,5.44444 l 3.7698,5 h 33.175 H 2400 v 984 984 h -33.1751 -33.175 l -3.7698,5 c -2.0733,2.75 -4.2445,5.2 -4.8249,5.4444 -0.5804,0.2445 -1.0552,1.0107 -1.0552,1.7028 0,1.8079 -2.8159,4.7324 -64.1072,66.5777 -30.4923,30.768 -56.1125,55.9418 -56.9337,55.9418 -0.8214,0 -2.0143,0.931 -2.6511,2.0689 -0.6368,1.138 -4.4167,4.3281 -8.3996,7.0893 l -7.2417,5.0204 -0.3563,33.5774 -0.3561,33.5773 H 1200 216.0458 Z m 1039.6438,-484.9223 c 10.2667,-0.6411 24.6667,-2.1904 32,-3.4431 32.6074,-5.5693 43.9306,-7.7257 45.8946,-8.7402 1.158,-0.5983 5.7054,-2.2544 10.1054,-3.6802 14.5948,-4.7296 25.2927,-8.956 28.63,-11.3108 1.8132,-1.2793 4.2898,-2.3261 5.5035,-2.3261 1.2136,0 2.9536,-0.9 3.8665,-2 0.913,-1.1 2.3364,-2.0032 3.1632,-2.0069 0.827,0 6.5071,-3.3039 12.6227,-7.3334 6.1156,-4.0296 11.5725,-7.3264 12.1267,-7.3264 0.5541,0 2.0934,-1.2 3.4208,-2.6666 1.3273,-1.4667 3.2202,-2.6667 4.2066,-2.6667 0.9863,0 1.7934,-0.6148 1.7934,-1.3664 0,-0.7515 1.3658,-1.8856 3.0353,-2.5203 1.6695,-0.6348 7.1439,-3.9668 12.1652,-7.4045 5.0213,-3.4377 12.5053,-8.0417 16.6312,-10.2311 15.7087,-8.3354 19.6599,-10.3293 24.8349,-12.5316 2.9334,-1.2482 8.3334,-3.6266 12,-5.2852 3.6667,-1.6585 9.3667,-4.0462 12.6667,-5.3061 3.3,-1.2599 7.9737,-3.1317 10.3863,-4.1597 2.4124,-1.028 8.1124,-3.096 12.6666,-4.5958 4.5542,-1.4997 10.9804,-3.9856 14.2804,-5.524 3.3,-1.5385 8.4,-3.8514 11.3334,-5.1398 8.971,-3.9404 25.2173,-12.1503 27.3333,-13.8127 1.1,-0.8641 3.65,-2.3967 5.6667,-3.4056 2.0166,-1.0089 3.6666,-2.3331 3.6666,-2.9425 0,-0.6094 0.5812,-1.108 1.2915,-1.108 1.9907,0 17.5973,-11.0275 18.3379,-12.9574 0.3608,-0.9401 1.1829,-1.7093 1.8272,-1.7093 1.9186,0 15.7646,-14.684 27.0072,-28.6417 3.555,-4.4138 8.955,-10.9608 12,-14.549 7.1898,-8.4726 31.0498,-32.3377 37.4681,-37.476 2.748,-2.2 6.5876,-5.5005 8.5323,-7.3344 1.9448,-1.834 5.6992,-4.9484 8.3432,-6.9209 2.6441,-1.9727 8.5002,-7.0721 13.0137,-11.3323 4.5135,-4.2601 8.9503,-8.4377 9.8593,-9.2836 7.0188,-6.5302 23.0474,-26.1741 25.3995,-31.1288 0.5223,-1.1 2.1524,-3.8 3.6225,-6 1.4702,-2.2 3.6546,-6.25 4.8543,-9 1.1996,-2.75 2.6901,-5 3.3123,-5 0.6221,0 1.131,-0.7105 1.131,-1.579 0,-0.8684 1.2778,-4.3184 2.8396,-7.6667 1.5618,-3.3481 4.3139,-9.3876 6.1159,-13.4209 1.802,-4.0334 3.8241,-8.3752 4.4937,-9.6486 0.6696,-1.2734 1.2198,-3.3734 1.2224,-4.6666 0,-1.2934 1.2028,-4.316 2.6667,-6.7171 1.464,-2.4011 2.6617,-5.0104 2.6617,-5.7984 0,-1.4579 0.338,-2.2573 8.3875,-19.836 2.5185,-5.5 4.9849,-11.2959 5.4808,-12.8796 0.4959,-1.5837 1.7784,-3.6072 2.85,-4.4965 1.0716,-0.8895 1.9484,-2.7138 1.9484,-4.0543 0,-1.3404 0.7852,-2.9169 1.7449,-3.5033 0.9598,-0.5864 2.5326,-3.0163 3.4951,-5.3996 0.9627,-2.3834 2.2773,-4.3334 2.9217,-4.3334 0.6444,0 1.1716,-1.2 1.1716,-2.6666 0,-1.4667 0.4707,-2.6667 1.0459,-2.6667 0.5752,0 2.18,-1.95 3.5663,-4.3333 1.3861,-2.3834 2.9376,-4.6334 3.4476,-5 0.8029,-0.5772 8.5874,-11.538 13.6198,-19.177 0.9096,-1.3806 2.9103,-3.7806 4.4462,-5.3333 1.5358,-1.5527 4.1325,-5.0693 5.7704,-7.8148 1.6377,-2.7455 3.702,-5.4455 4.587,-6 0.8852,-0.5545 3.9886,-5.8015 6.8964,-11.6597 2.9079,-5.8584 6.0371,-11.4512 6.9538,-12.4287 0.9166,-0.9773 1.6666,-2.6632 1.6666,-3.7461 0,-1.0831 1.2,-4.453 2.6667,-7.4886 1.4667,-3.0357 2.6667,-6.3278 2.6667,-7.3158 0,-0.9882 1.0029,-3.3272 2.2289,-5.1982 1.2259,-1.8709 2.6979,-5.8998 3.2711,-8.9532 1.7352,-9.2426 6.0976,-26.6479 7.679,-30.6381 0.8182,-2.0644 1.4876,-5.5827 1.4876,-7.8183 0,-2.2357 0.8788,-10.1467 1.9531,-17.5799 1.0741,-7.4333 2.9465,-20.415 4.1609,-28.8483 1.5348,-10.6579 2.4134,-28.6808 2.8812,-59.1067 0.5932,-38.5761 0.3312,-47.0457 -2.2064,-71.3334 -3.715,-35.556 -7.7488,-61.8779 -11.3753,-74.2266 -1.0768,-3.6667 -2.9405,-10.2667 -4.1416,-14.6667 -1.2012,-4.4 -2.646,-8.6 -3.2108,-9.3333 -0.5647,-0.7333 -1.4215,-2.9859 -1.904,-5.0056 -1.2881,-5.3918 -10.2932,-23.9135 -13.0845,-26.9125 -1.3232,-1.4216 -2.4059,-3.06939 -2.4059,-3.66179 0,-0.5924 -3,-5.2815 -6.6667,-10.4201 -3.6666,-5.1387 -6.6666,-9.9408 -6.6666,-10.6715 0,-0.7307 -0.799,-1.3285 -1.7755,-1.3285 -0.9765,0 -3.7992,-3.15 -6.2725,-7 -2.4735,-3.85 -4.9746,-7.2 -5.5579,-7.4445 -0.5835,-0.2444 -1.0608,-1.2302 -1.0608,-2.1906 0,-0.9605 -0.8531,-2.0737 -1.8959,-2.4738 -1.0426,-0.4001 -3.5638,-3.6143 -5.6026,-7.1426 -2.0387,-3.5284 -4.148,-6.7274 -4.6874,-7.109 -0.5393,-0.3816 -1.6168,-2.1816 -2.3942,-4 -1.4102,-3.2982 -2.674,-5.4693 -7.0866,-12.173 -1.2833,-1.9496 -2.3333,-4.5022 -2.3333,-5.6723 0,-1.1702 -0.4752,-2.1275 -1.0559,-2.1275 -1.0348,0 -8.2774,-14.7001 -8.2774,-16.8002 0,-0.587 -3.2356,-7.6971 -7.1903,-15.8002 -3.9547,-8.1031 -7.5613,-15.633 -8.0148,-16.733 -0.4535,-1.1 -3.5417,-6.8 -6.8628,-12.6666 -3.3209,-5.8667 -6.6729,-12.3167 -7.4489,-14.3334 -0.7759,-2.0166 -1.952,-3.6666 -2.6136,-3.6666 -0.6616,0 -1.203,-1.15 -1.203,-2.5556 0,-1.4056 -0.4998,-2.7556 -1.1109,-3 -0.6109,-0.2444 -3.3625,-4.4944 -6.1147,-9.4444 -2.7521,-4.95 -5.5522,-9 -6.2225,-9 -0.6701,0 -1.2185,-1.2 -1.2185,-2.6667 0,-1.4667 -0.5055,-2.6667 -1.1234,-2.6667 -0.6178,0 -2.2544,-2.1 -3.6365,-4.6666 -1.3823,-2.5667 -2.9768,-4.6667 -3.5433,-4.6667 -0.5666,0 -1.0302,-0.866 -1.0302,-1.9244 0,-1.0584 -1.0604,-2.7084 -2.3565,-3.6667 -1.296,-0.9582 -3.4964,-3.5422 -4.8896,-5.7422 -1.3932,-2.2 -3.6328,-4.9704 -4.9768,-6.1564 -1.3441,-1.1861 -2.4437,-2.5251 -2.4437,-2.9758 0,-0.4506 -2.1,-2.9818 -4.6667,-5.6247 -2.5667,-2.643 -4.6667,-5.3539 -4.6667,-6.0243 0,-0.6704 -0.9,-1.2188 -2,-1.2188 -1.1,0 -2,-0.5842 -2,-1.2982 0,-1.0987 -30.2898,-32.03518 -31.3654,-32.03518 -0.9238,0 -12.6346,-12.5621 -12.6346,-13.55301 0,-0.61251 -0.9,-1.11365 -2,-1.11365 -1.1,0 -2,-0.54835 -2,-1.21855 0,-2.49237 -52.9616,-54.43456 -60.5781,-59.41201 -4.3512,-2.84363 -13.3512,-7.52816 -20,-10.41007 -16.7521,-7.26129 -23.974,-10.63815 -24.7552,-11.57521 -1.3737,-1.64799 -61.2805,-30.69699 -63.4088,-30.74715 -0.6917,-0.0163 -2.7579,-1.20296 -4.5912,-2.63701 -1.8333,-1.43406 -4.2701,-2.62071 -5.4152,-2.63702 -1.1451,-0.0163 -3.37,-1.22965 -4.9443,-2.69632 -1.5742,-1.46666 -3.7874,-2.66666 -4.9181,-2.66666 -1.1307,0 -2.0557,-0.61883 -2.0557,-1.37518 0,-0.75636 -1.05,-1.77208 -2.3334,-2.25716 -5.4392,-2.05594 -31,-20.14881 -31,-21.94292 0,-0.60028 -0.75,-1.101 -1.6666,-1.1127 -0.9167,-0.012 -3.7667,-1.80531 -6.3334,-3.98576 -2.5666,-2.18046 -5.3913,-4.57088 -6.277,-5.31204 -0.8858,-0.74116 -2.0239,-1.34758 -2.5294,-1.34758 -0.5054,0 -3.4817,-2.1 -6.614,-4.66666 C 1406.7807,550.1 1403.2688,548 1402.1089,548 c -1.1598,0 -2.1089,-0.55904 -2.1089,-1.24229 0,-1.23519 -21.6333,-12.11875 -28,-14.08662 -1.8333,-0.56666 -4.5168,-1.84946 -5.9633,-2.85069 -1.4466,-1.00121 -3.6575,-1.8204 -4.9132,-1.8204 -1.2558,0 -3.9723,-0.70521 -6.0367,-1.56713 -21.9278,-9.15526 -91.5141,-17.02784 -151.0868,-17.09312 -64.2589,-0.0704 -123.4464,7.90477 -161.3333,21.73874 -12.4762,4.55554 -14.6667,5.53832 -14.6667,6.58032 0,0.55432 -0.8275,1.00786 -1.8389,1.00786 -2.8705,0 -16.8278,6.7164 -16.8278,8.09774 0,0.67958 -0.8045,1.23559 -1.7878,1.23559 -1.9686,0 -25.2779,15.72876 -25.99,17.5376 -0.2444,0.62099 -1.0162,1.12907 -1.715,1.12907 -1.0432,0 -9.3882,5.94228 -21.2003,15.09625 -6.0408,4.68147 -20.0681,13.24437 -29.3069,17.89033 -2.5666,1.29071 -4.8666,2.79675 -5.1111,3.34675 -0.2444,0.55 -1.0535,1 -1.7979,1 -0.7444,0 -6.3353,2.4 -12.4243,5.33333 -6.089,2.93334 -11.6813,5.33334 -12.4274,5.33334 -0.7461,0 -3.0551,0.84284 -5.1312,1.87296 C 883.9648,620.7456 876.2848,624 874.8359,624 c -0.8463,0 -2.5806,0.56175 -3.854,1.24833 -1.2734,0.68659 -5.9152,2.8442 -10.3152,4.79471 -15.4105,6.83143 -32.0602,15.22933 -38.807,19.57377 -15.8152,10.18382 -21.8597,14.541 -21.8597,15.7575 0,0.7108 -0.6517,1.29236 -1.4482,1.29236 -1.4897,0 -8.7461,6.24165 -13.7345,11.81369 -1.5495,1.73085 -5.0673,5.48155 -7.8173,8.33485 -2.75,2.85331 -5,5.78715 -5,6.51964 0,0.73251 -0.5365,1.33182 -1.1921,1.33182 -0.6557,0 -4.6389,4.5 -8.8515,10 -4.2127,5.5 -8.1762,10 -8.8079,10 -0.6317,0 -1.1485,0.62532 -1.1485,1.38961 0,1.85195 -1.1281,3.14123 -16.6667,19.04733 -13.4275,13.74515 -26.8413,26.2297 -28.1821,26.2297 -0.3981,0 -1.7199,1.1056 -2.9375,2.4568 -1.2175,1.3512 -7.2991,6.9012 -13.5146,12.3333 -14.0964,12.3198 -12.9235,11.1511 -19.9492,19.8766 -3.2476,4.0333 -6.5966,7.9333 -7.4421,8.6667 -1.416,1.2281 -7.4073,9.8464 -10.6932,15.3817 -0.762,1.2836 -2.0404,3.1478 -2.8409,4.1427 -1.8198,2.2616 -9.9064,18.2725 -13.7087,27.1422 -1.5718,3.6667 -4.0295,8.8856 -5.4614,11.5975 -1.432,2.712 -2.6036,5.6213 -2.6036,6.4652 0,0.8439 -0.8297,3.425 -1.8437,5.7358 -1.014,2.3108 -2.5746,6.3015 -3.4679,8.8682 -0.8933,2.5667 -2.0918,5.8667 -2.6634,7.3333 -0.5715,1.4667 -2.0839,5.3667 -3.3609,8.6667 -1.277,3.3 -3.3692,8.4 -4.6495,11.3333 -1.2803,2.9334 -3.7279,8.6334 -5.4392,12.6667 -1.7113,4.0333 -3.7705,8.2333 -4.5759,9.3333 -0.8054,1.1 -3.1296,5.3 -5.1648,9.3334 -2.0353,4.0333 -5.1661,9.7333 -6.9573,12.6666 -1.7913,2.9334 -3.8723,6.5334 -4.6244,8 -3.1943,6.229 -7.7139,13.116 -11.253,17.1478 -0.7333,0.8354 -2.2333,3.2687 -3.3333,5.4074 -1.1,2.1387 -3.5028,5.4387 -5.3395,7.3333 -1.8367,1.8947 -4.5367,5.8061 -6,8.69219 -1.4633,2.886 -3.7105,6.336 -4.9939,7.6666 -1.2833,1.3307 -2.3333,2.9659 -2.3333,3.6339 0,0.668 -2.1,5.6988 -4.6667,11.1795 -2.5666,5.4808 -4.6666,10.9343 -4.6666,12.1189 0,1.1846 -0.5288,2.1538 -1.1751,2.1538 -0.6463,0 -1.8911,2.85 -2.7663,6.3333 -0.8752,3.4833 -2.3706,8.1333 -3.3231,10.3333 -0.9525,2.2 -2.7943,7.9 -4.093,12.6667 -2.3138,8.4923 -2.8271,11.0711 -5.9715,30 -0.8528,5.1333 -2.7026,15.4822 -4.1108,22.9975 -1.4081,7.5153 -2.5648,18.0153 -2.5704,23.3333 -0.01,5.3181 -0.6067,14.7692 -1.3359,21.0025 -1.748,14.9421 -1.7756,48.9632 -0.053,65.1125 0.7562,7.0881 1.9422,18.5875 2.6357,25.5542 1.9765,19.8577 5.6654,40.8077 10.33,58.6667 1.0534,4.0333 2.3698,9.7719 2.9253,12.7525 0.5554,2.9806 2.0219,6.8641 3.2588,8.63 1.2369,1.766 2.2489,4.3367 2.2489,5.7127 0,2.4334 1.2822,5.8373 6.8699,18.2381 5.6991,12.648 7.092,15.4424 9.4076,18.8725 1.3141,1.9466 2.3892,4.4966 2.3892,5.6667 0,1.1701 0.5596,2.1275 1.2435,2.1275 0.6839,0 1.669,1.3409 2.1892,2.9797 0.5201,1.6388 3.2606,6.1132 6.0898,9.9431 2.8293,3.8298 5.1442,7.3318 5.1442,7.7821 0,0.4504 0.75,1.6096 1.6666,2.5759 3.6738,3.8729 7.7827,10.1229 12.5256,19.0525 1.2659,2.3833 2.7905,4.3333 3.388,4.3333 0.5976,0 1.0864,1.2 1.0864,2.6667 0,1.4667 0.509,2.6667 1.1311,2.6667 0.6221,0 2.1139,2.25 3.3152,5 1.2013,2.75 3.7313,7.7 5.6222,11 3.052,5.3261 5.0546,9.7425 10.4293,23 0.8176,2.0166 1.9401,3.6666 2.4944,3.6666 0.5543,0 1.0078,1.2082 1.0078,2.6848 0,1.4766 0.5634,3.7266 1.2519,5 2.8086,5.1944 8.0815,18.09 8.0815,19.7644 0,0.9866 0.833,3.764 1.8512,6.1723 1.0181,2.4081 3.1804,7.6785 4.8049,11.7119 1.6246,4.0333 4.0103,9.7333 5.3015,12.6666 1.2913,2.9334 3.3956,7.7334 4.6762,10.6667 1.2807,2.9333 2.9312,6.486 3.6678,7.8949 4.8962,9.364 8.3658,15.1368 10.5331,17.5244 1.3742,1.5139 2.4986,3.1631 2.4986,3.6648 0,1.5083 12.3394,16.9159 13.5473,16.9159 0.6156,0 1.1194,0.6001 1.1194,1.3336 0,2.2709 20.5479,22.0159 32.6073,31.3331 7.142,5.518 14.9271,12.398 20.7452,18.3333 2.6957,2.75 5.2662,5 5.7123,5 1.2706,0 12.9352,12.158 12.9352,13.4824 0,0.6513 0.9,1.1843 2,1.1843 1.1,0 2,0.6105 2,1.3569 0,0.7463 2.1,3.3963 4.6666,5.8888 2.5667,2.4925 4.6667,4.9248 4.6667,5.4051 0,0.4801 0.75,1.6572 1.6667,2.6154 0.9166,0.9584 3.1666,3.6042 5,5.8796 1.8333,2.2754 5.2828,6.3983 7.6656,9.1622 2.3828,2.764 4.3328,5.4292 4.3333,5.9228 6e-4,0.4936 1.6511,2.6152 3.6677,4.7146 2.0167,2.0996 6.1172,6.4958 9.1122,9.7694 6,6.5578 21.378,20.3097 23.6553,21.1537 0.7942,0.2944 2.0715,1.0529 2.8383,1.6855 3.9165,3.231 11.7363,7.7793 13.3748,7.7793 1.0241,0 2.2094,0.562 2.6339,1.2489 0.4245,0.6868 2.4099,2.0766 4.412,3.088 2.0021,1.0116 4.8402,2.4831 6.3069,3.27 3.0765,1.6507 8.9349,4.2059 19.3333,8.4326 6.851,2.7846 10.2182,4.2126 23.0452,9.7733 2.7749,1.2029 5.8682,2.1872 6.874,2.1872 1.0059,0 4.1355,1.1219 6.9548,2.4929 9.7368,4.7355 15.2259,6.8404 17.8379,6.8404 1.4418,0 2.6214,0.4535 2.6214,1.0079 0,1.0431 3.0598,2.5271 13.3334,6.4665 3.3,1.2655 7.5366,3.3615 9.4146,4.6579 1.8781,1.2964 5.0281,2.762 7,3.2569 1.972,0.495 3.5854,1.4172 3.5854,2.0496 0,0.6324 3.15,2.6822 7,4.5552 3.85,1.873 9.4,4.9 12.3333,6.7267 2.9333,1.8268 6.3833,3.6819 7.6667,4.1225 1.2833,0.4407 2.3333,1.3618 2.3333,2.0471 0,0.6852 1.95,2.1104 4.3333,3.1672 2.3834,1.0568 6.7334,3.6443 9.6667,5.75 9.2448,6.6364 20.3959,13.5259 21.8927,13.5259 0.7924,0 1.4407,0.4986 1.4407,1.108 0,1.1645 1.3027,1.8789 13.5896,7.4537 4.1742,1.8939 7.9596,4.0423 8.412,4.7741 0.4523,0.732 2.287,1.3308 4.0771,1.3308 1.79,0 3.2546,0.5523 3.2546,1.2274 0,0.675 1.95,1.634 4.3333,2.1309 2.3834,0.4969 5.5422,1.6659 7.0196,2.5977 1.4774,0.9319 4.7774,2.115 7.3333,2.6291 2.5559,0.5141 8.2471,2.0344 12.6471,3.3784 4.4,1.3441 13.4,3.3972 20,4.5625 6.6,1.1655 18.9,3.3294 27.3334,4.8087 8.4333,1.4793 20.4333,2.7495 26.6666,2.8223 6.2334,0.073 14.9334,0.6173 19.3334,1.2098 9.0353,1.2167 54.5448,0.5563 82.6666,-1.1997 z m -72,-237.6031 c -28.6206,-4.8846 -47.2495,-10.8928 -82.9268,-26.7453 -3.0764,-1.3669 -6.5264,-2.4853 -7.6667,-2.4853 -1.1402,0 -2.0731,-0.6 -2.0731,-1.3334 0,-0.7333 -0.9082,-1.3333 -2.0181,-1.3333 -1.11,0 -3.06,-0.5117 -4.3334,-1.1372 -1.2733,-0.6253 -4.4152,-2.0339 -6.9819,-3.1297 -2.5666,-1.096 -7.5327,-3.2843 -11.0356,-4.863 -3.503,-1.5785 -7.0636,-2.8701 -7.9124,-2.8701 -0.8489,0 -3.9828,-1.1129 -6.9643,-2.4732 -2.9816,-1.3604 -9.021,-3.5461 -13.421,-4.8572 -4.4,-1.3112 -10.7,-3.4329 -14,-4.7152 -3.3,-1.2821 -7.9431,-2.7425 -10.318,-3.2453 -2.375,-0.5028 -4.6604,-1.4682 -5.0787,-2.145 -0.4184,-0.6769 -1.8686,-1.2308 -3.2227,-1.2308 -1.354,0 -4.7686,-1.1721 -7.5879,-2.6048 -2.8193,-1.4326 -8.126,-3.9125 -11.7927,-5.5109 -3.6667,-1.5983 -11.1667,-4.9621 -16.6667,-7.4753 -5.5,-2.5132 -12.1,-5.5212 -14.6666,-6.6844 C 952.1,1557.8945 949.1,1556.4417 948,1555.8292 942.7536,1552.9081 932.2905,1548 931.3097,1548 c -0.6049,0 -2.047,-0.8247 -3.2047,-1.8328 -1.1578,-1.008 -5.855,-3.8228 -10.4383,-6.2551 -4.5834,-2.4324 -8.3334,-4.9076 -8.3334,-5.5006 0,-0.593 -0.7177,-1.0782 -1.595,-1.0782 -1.7538,0 -12.1392,-6.7353 -12.8494,-8.3333 -0.2445,-0.55 -1.0617,-1 -1.816,-1 -2.0701,0 -21.0729,-19.9379 -21.0729,-22.1097 0,-1.0396 -0.5317,-1.8903 -1.1814,-1.8903 -0.6498,0 -2.1659,-2.0745 -3.369,-4.61 -1.2032,-2.5356 -2.7784,-4.9752 -3.5005,-5.4215 -0.722,-0.4462 -3.1417,-4.5217 -5.3771,-9.0566 -2.2354,-4.5348 -4.9028,-9.7335 -5.9276,-11.5524 -1.0248,-1.819 -3.2282,-6.469 -4.8963,-10.3334 -1.6682,-3.8644 -3.494,-7.0261 -4.0573,-7.0261 -0.5633,0 -1.0241,-0.9575 -1.0241,-2.1276 0,-1.1701 -0.8082,-3.7201 -1.796,-5.6667 -3.7196,-7.3296 -13.3188,-28.504 -15.5068,-34.2057 -0.5629,-1.4667 -2.5251,-5.9667 -4.3606,-10 -1.8354,-4.0333 -4.1362,-9.7333 -5.1128,-12.6667 -0.9766,-2.9333 -2.4757,-6.2333 -3.3312,-7.3333 -0.8555,-1.1 -2.3038,-4.4 -3.2185,-7.3333 -0.9146,-2.9334 -2.1905,-5.9034 -2.8352,-6.6 -0.6448,-0.6967 -1.1723,-2.2732 -1.1723,-3.5035 0,-1.2301 -0.9,-2.9836 -2,-3.8965 -1.1,-0.913 -2,-2.5236 -2,-3.5792 0,-1.0556 -1.4064,-5.0322 -3.1252,-8.8367 -1.7189,-3.8047 -4.2004,-9.6175 -5.5145,-12.9175 -1.314,-3.3 -3.1199,-7.8 -4.0132,-10 -0.8932,-2.2 -2.9807,-7.9 -4.6388,-12.6666 -1.6582,-4.7667 -4.1459,-11.2102 -5.5283,-14.3188 -1.3823,-3.1087 -2.5133,-6.7387 -2.5133,-8.0667 0,-1.328 -0.6021,-3.0167 -1.3381,-3.7526 -0.7359,-0.7359 -2.2643,-4.9059 -3.3965,-9.2667 -1.1321,-4.3607 -2.6299,-8.1286 -3.3285,-8.373 -0.6987,-0.2445 -1.2702,-1.8823 -1.2702,-3.6397 0,-1.7574 -0.8737,-5.4574 -1.9415,-8.2222 -5.2635,-13.6288 -10.0585,-41.6975 -10.0585,-58.8801 0,-6.5351 1.2644,-18.9915 2.8099,-27.6811 1.5455,-8.6895 3.2935,-18.4991 3.8845,-21.7991 0.591,-3.3 2.0228,-7.8 3.1818,-10 1.159,-2.2 2.111,-5.6693 2.1155,-7.7095 0,-2.0402 1.0073,-5.9402 2.2284,-8.6667 1.2211,-2.7264 2.9462,-7.3572 3.8336,-10.2905 2.4037,-7.9453 8.4801,-24.747 10.6813,-29.5348 1.0624,-2.3109 1.9316,-4.8042 1.9316,-5.5407 0,-0.7365 1.1332,-3.6459 2.5181,-6.4652 1.3849,-2.8193 3.5465,-7.826 4.8035,-11.126 1.257,-3.3 2.8239,-7.05 3.482,-8.3333 3.692,-7.2002 6.0143,-12.4243 15.2624,-34.3333 4.179,-9.9 8.4457,-19.93719 9.4817,-22.30479 1.036,-2.3676 3.3141,-8.0676 5.0625,-12.6667 4.1377,-10.8839 8.3042,-20.7386 14.81,-35.0285 1.0016,-2.2 2.2007,-5.6254 2.6646,-7.612 0.4639,-1.9866 1.6847,-4.3101 2.7127,-5.1633 1.0281,-0.8532 1.8692,-2.5631 1.8692,-3.7998 0,-1.2367 0.8809,-3.4133 1.9576,-4.8368 1.0767,-1.4235 1.9767,-3.3935 2,-4.3778 0.023,-0.9844 1.2424,-3.3153 2.7091,-5.1799 1.4666,-1.8645 2.6666,-4.5092 2.6666,-5.8769 0,-1.3678 0.6018,-2.4869 1.3373,-2.4869 0.7355,0 2.3771,-2.4 3.6479,-5.3333 1.2708,-2.9333 2.769,-5.3333 3.3294,-5.3333 0.5603,0 1.0188,-0.5728 1.0188,-1.2728 0,-0.7 1.35,-2.7093 3,-4.4652 1.65,-1.7559 5.1,-5.5472 7.6666,-8.425 4.78,-5.3596 19.8889,-17.2062 24.6667,-19.3407 1.4667,-0.6553 5.0667,-2.6725 8,-4.4827 5.8501,-3.6102 10.0532,-5.7248 28,-14.0869 6.6,-3.0751 16.5,-7.7183 22,-10.318 5.5,-2.5997 12.1,-5.6135 14.6667,-6.6973 4.6858,-1.9786 7.3371,-3.2164 11.6666,-5.4468 2.4188,-1.2461 17.8676,-8.427 28.3334,-13.17 3.3,-1.4955 12.329,-5.7736 20.0645,-9.5069 7.7355,-3.7332 14.7855,-6.7877 15.6667,-6.7877 0.8812,0 1.6021,-0.5037 1.6021,-1.1193 0,-0.6157 4.5,-3.112 10,-5.5474 5.5,-2.4355 10,-4.9203 10,-5.522 0,-0.6016 1.6461,-1.507 3.658,-2.012 2.0119,-0.5049 6.3619,-2.5071 9.6667,-4.4493 8.1165,-4.77 24.8416,-12.647 31.1375,-14.6648 2.8209,-0.9041 6.7209,-2.4744 8.6667,-3.4896 1.9458,-1.0153 4.2192,-1.8496 5.052,-1.8541 0.8329,0 3.2329,-0.9045 5.3334,-2 2.1004,-1.0955 5.4468,-1.99548 7.4363,-2 1.9896,-0.004 6.4896,-1.13937 10,-2.5219 3.5105,-1.38252 9.9827,-2.88888 14.3827,-3.34744 4.4,-0.45858 10.4,-1.41311 13.3334,-2.12118 8.2138,-1.98273 37.4951,-1.59225 46.6666,0.62231 4.4,1.06243 10.4,1.95955 13.3334,1.9936 2.9333,0.0341 8.3333,1.029 12,2.21099 3.6666,1.18197 9.3666,2.61785 12.6666,3.19082 5.8682,1.0189 15.3464,4.0775 20.6667,6.6691 1.4667,0.7144 6.4789,2.533 11.1383,4.0412 4.6595,1.5082 12.1595,4.5813 16.6667,6.8291 4.5073,2.2478 11.0421,5.513 14.5218,7.256 3.4797,1.7431 7.1797,3.1692 8.2223,3.1692 1.0424,0 2.0953,0.5419 2.3398,1.2044 0.4222,1.144 21.4608,12.3145 49.1111,26.0755 12.0824,6.0131 18.9841,9.2482 29.3333,13.7494 5.2147,2.2681 8.2196,3.7017 11.6667,5.566 1.2833,0.6941 6.4909,2.8562 11.5725,4.8047 5.0815,1.9485 10.1815,4.0133 11.3334,4.5883 2.8893,1.4426 15.6432,7.2068 22.0941,9.9855 9.1797,3.9542 25.3028,11.8672 26,12.7604 0.6463,0.828 5.8808,3.7882 11.3333,6.409 4.1094,1.9752 27.3334,25.2916 27.3334,27.4421 0,0.4819 1.9741,3.9973 4.387,7.8121 4.5587,7.2072 12.1379,22.5653 16.254,32.9359 1.3098,3.3 3.5887,8.7 5.0644,12 10.6326,23.7764 11.6279,26.1961 11.6279,28.2682 0,1.0258 0.55,2.4352 1.2221,3.1318 2.3232,2.4078 8.1112,14.3389 8.1112,16.7199 0,1.3142 0.6114,2.7672 1.3586,3.229 0.747,0.4618 3.3513,4.8472 5.787,9.74539 6.9691,14.0147 18.2435,35.3639 19.4707,36.8696 0.6137,0.7532 3.0061,5.1025 5.3163,9.6652 2.3102,4.5626 4.7705,8.648 5.4672,9.0787 0.6968,0.4306 1.2669,1.8741 1.2669,3.2077 0,1.3336 0.9,3.1716 2,4.0845 1.1,0.913 2,2.7864 2,4.1633 0,1.3769 0.45,2.5081 1,2.5138 1.3165,0.014 4.3333,6.5755 4.3333,9.4255 0,1.2307 0.8334,2.9292 1.8519,3.7745 1.0185,0.8453 2.5629,4.3608 3.432,7.8122 0.8691,3.4514 1.9857,6.5833 2.4815,6.9597 1.0786,0.819 6.4698,17.5592 7.6276,23.6844 0.4504,2.3833 1.3713,4.3333 2.0464,4.3333 0.675,0 1.2192,1.05 1.2093,2.3333 -0.013,1.2834 1.1349,7.1334 2.5441,13 6.7218,27.9839 8.8579,63.335 4.8339,80 -1.0624,4.4 -1.9531,9.7018 -1.9792,11.7818 -0.047,3.6953 -3.5583,18.0446 -7.4393,30.3972 -1.0679,3.3984 -1.9415,7.1484 -1.9415,8.3333 0,1.1849 -0.504,2.1544 -1.1199,2.1544 -0.616,0 -1.8892,2.55 -2.8294,5.6667 -2.7582,9.143 -8.1472,21.991 -15.6792,37.3808 -3.871,7.9094 -7.0382,14.9594 -7.0382,15.6666 0,0.7072 -0.6,1.2859 -1.3333,1.2859 -0.7333,0 -1.3333,1.1265 -1.3333,2.5035 0,1.3768 -0.9,3.2502 -2,4.1632 -1.1,0.9129 -2,2.2354 -2,2.9389 0,0.7035 -2.1,4.8621 -4.6667,9.2415 -2.5667,4.3793 -4.6667,8.5554 -4.6667,9.2801 0,0.7247 -1.2,2.6057 -2.6666,4.18 -1.4667,1.5743 -2.6667,3.8992 -2.6667,5.1664 0,1.2673 -0.5119,2.5041 -1.1373,2.7487 -0.6256,0.2444 -3.2103,4.6444 -5.7439,9.7777 -2.5335,5.1333 -5.2552,10.5333 -6.0481,12 -0.793,1.4667 -2.4962,5.0667 -3.7848,8 -1.2887,2.9333 -2.8595,6.2333 -3.4908,7.3333 -0.6312,1.1 -1.814,3.5 -2.6283,5.3334 -2.4196,5.4481 -12.764,27.8436 -21.0272,45.524 -2.2768,4.8714 -4.1396,9.4714 -4.1396,10.2221 0,0.7508 -0.45,1.5649 -1,1.8095 -0.55,0.2444 -4.2971,6.8944 -8.3269,14.7777 -4.0298,7.8833 -7.7798,14.3333 -8.3334,14.3333 -0.5534,0 -1.0064,0.5727 -1.0064,1.2727 0,0.7 -1.35,2.6947 -3,4.4327 -1.65,1.7378 -5.1014,5.515 -7.6698,8.3938 -7.2403,8.1151 -21.6392,18.2327 -36.4783,25.632 -7.4352,3.7074 -14.8685,7.125 -16.5185,7.5947 -1.65,0.4696 -3,1.4135 -3,2.0973 0,0.6839 -1.0854,1.2435 -2.4119,1.2435 -1.3264,0 -3.5764,0.8809 -5,1.9576 -1.4235,1.0767 -3.376,1.9767 -4.3388,2 -0.9629,0.023 -5.4629,1.7632 -10,3.8663 -4.5372,2.1032 -13.0493,5.7629 -18.916,8.1326 -5.8667,2.3698 -13.1324,5.449 -16.146,6.8427 -3.0137,1.3937 -6.0364,2.5341 -6.7171,2.5341 -0.6806,0 -6.1916,2.0583 -12.2466,4.5738 -6.0551,2.5156 -12.7756,4.9618 -14.9344,5.436 -2.159,0.4741 -4.2676,1.416 -4.6859,2.0928 -0.4184,0.6769 -1.9092,1.2308 -3.3131,1.2308 -1.4037,0 -5.1182,1.1361 -8.2545,2.5248 -3.1364,1.3888 -9.0024,3.8505 -13.0357,5.4706 -4.0334,1.6203 -9.1334,3.7019 -11.3334,4.6259 -10.8253,4.5468 -18.413,7.6071 -30,12.0995 -6.9666,2.7012 -13.8666,5.402 -15.3333,6.0018 -23.0482,9.4266 -26.3848,10.5727 -36.6667,12.5942 -4.7666,0.9372 -11.6666,2.342 -15.3333,3.1216 -20.2195,4.2996 -39.9347,5.3065 -54.6667,2.7922 z M 1946,718.82861 c 13.7997,-1.5669 31.7577,-6.26073 44,-11.50057 2.2,-0.94163 8.65,-3.68408 14.3333,-6.09433 5.6834,-2.41026 10.3334,-4.87386 10.3334,-5.47467 0,-0.6008 0.9574,-1.09237 2.1276,-1.09237 1.8984,0 9.4816,-3.60923 11.2057,-5.33334 0.3667,-0.36666 4.5084,-2.6837 9.204,-5.14897 4.6955,-2.46528 12.6476,-7.41528 17.6715,-11 5.0237,-3.58473 9.5317,-6.51769 10.0174,-6.51769 0.4859,0 1.8338,-0.90279 2.9952,-2.00618 1.1616,-1.1034 7.8462,-6.41368 14.8546,-11.80061 15.8752,-12.20207 28.177,-24.42128 34.4249,-34.19321 1.1721,-1.83334 2.9392,-4.17644 3.9268,-5.20691 0.9876,-1.03047 2.3439,-3.13047 3.0141,-4.66667 1.5772,-3.61552 3.9744,-7.31601 6.8915,-10.6384 1.2833,-1.46164 2.3333,-3.70897 2.3333,-4.99408 0,-1.28512 0.5244,-2.66066 1.1654,-3.05678 1.4673,-0.9069 8.1652,-14.94784 8.1762,-17.14028 0,-0.89662 0.853,-3.24956 1.8855,-5.22875 2.3972,-4.59492 5.6905,-15.8384 9.1,-31.06813 2.0809,-9.2952 2.8273,-18.5546 3.3115,-41.07988 0.5681,-26.4338 0.3598,-30.25551 -2.2878,-42 -1.602,-7.10607 -3.7612,-15.18227 -4.7984,-17.94711 -1.0372,-2.76484 -1.8857,-6.07372 -1.8857,-7.35308 0,-1.27935 -1.2,-4.56503 -2.6667,-7.30151 -1.4666,-2.73649 -2.6666,-5.83474 -2.6666,-6.88502 0,-1.05027 -0.75,-2.7131 -1.6667,-3.69516 -0.9167,-0.98207 -3.1667,-4.77494 -5,-8.42858 -1.8333,-3.65365 -3.7472,-6.95612 -4.2532,-7.33881 -0.5059,-0.38269 -2.5164,-3.04859 -4.4679,-5.92419 C 2121.2765,379.8684 2094.55,352 2092.0699,352 c -0.7718,0 -1.4032,-0.9 -1.4032,-2 0,-1.1 -0.5795,-2 -1.2878,-2 -1.4798,0 -37.3789,-35.08229 -37.3789,-36.52843 0,-0.5254 -3,-3.83164 -6.6667,-7.3472 -3.6666,-3.51557 -6.6666,-7.08174 -6.6666,-7.92482 0,-0.84308 -0.4508,-1.53288 -1.0018,-1.53288 -0.5509,0 -4.6009,-3.2929 -9,-7.31754 -11.466,-10.49006 -11.4708,-10.49416 -17.3316,-14.78124 -2.9333,-2.14568 -5.5333,-4.35122 -5.7777,-4.90122 -0.2445,-0.55 -1.5211,-1 -2.8368,-1 -1.3157,0 -3.1316,-0.89078 -4.0351,-1.97951 -0.9036,-1.08872 -4.127,-3.10761 -7.1633,-4.48644 C 1976.0961,253.19623 1973.0605,252 1970.7097,252 c -1.4038,0 -2.8848,-0.53789 -3.291,-1.19531 -0.4064,-0.65742 -4.5539,-1.85969 -9.217,-2.67172 -4.6629,-0.81201 -11.4158,-2.36762 -15.0065,-3.45692 -4.868,-1.47678 -13.5865,-1.98418 -34.278,-1.99496 -23.0863,-0.012 -29.92,0.4506 -40.6667,2.75291 -36.2053,7.75651 -54.2826,15.30968 -80.8396,33.77689 -5.176,3.59932 -10.837,7.79932 -12.5801,9.33334 -4.4823,3.94462 -23.2309,22.80429 -24.8308,24.97776 -0.7333,0.99624 -3.8833,4.89461 -7,8.66305 -3.1167,3.76844 -5.6667,7.53727 -5.6667,8.37519 0,0.8379 -0.9,1.86882 -2,2.29093 -1.1,0.42212 -2,1.29809 -2,1.94663 0,0.64852 -2.1,3.93029 -4.6666,7.2928 -2.5667,3.36252 -4.6667,6.9177 -4.6667,7.90042 0,0.98272 -0.4999,1.98676 -1.1109,2.23122 -1.4567,0.58284 -12.3987,19.56764 -17.931,31.1111 -1.0544,2.2 -3.8013,7.51094 -6.1042,11.80207 -2.303,4.29113 -4.1872,8.57255 -4.1872,9.51425 0,0.94171 -0.8963,3.43078 -1.9918,5.53127 -1.0956,2.10049 -1.9992,4.71908 -2.0082,5.81908 -0.013,1.1 -0.964,3.8 -2.1222,6 -6.2738,11.91808 -9.4372,44.03683 -7.4561,75.70433 1.4796,23.6503 5.6581,54.74462 7.9475,59.1398 0.713,1.36906 1.7137,5.92975 2.2236,10.13486 0.51,4.2051 1.4852,7.99052 2.1672,8.41201 0.682,0.42151 1.24,2.23911 1.24,4.03912 0,3.15208 0.4252,4.37259 3.7918,10.88512 0.8478,1.64005 1.5415,3.53657 1.5415,4.21449 0,0.67792 2.1,5.71686 4.6667,11.19763 2.5666,5.48077 4.6666,10.63425 4.6666,11.45217 0,0.81792 0.5612,1.48714 1.2471,1.48714 0.6859,0 2.0064,2.1 2.9345,4.66666 0.928,2.56667 2.1266,4.66667 2.6631,4.66667 0.5365,0 1.3553,1.19645 1.8195,2.65877 0.4641,1.46232 1.5545,3.42852 2.4232,4.36932 2.2781,2.46746 7.5793,10.07662 7.5793,10.87919 0,1.65189 29.7619,30.09272 31.4904,30.09272 0.7317,0 11.6332,7.05913 12.5096,8.10048 1.5963,1.89665 32.0172,15.89952 34.5413,15.89952 1.5356,0 2.792,0.52203 2.792,1.16005 0,0.63803 2.85,1.90355 6.3334,2.81227 3.4833,0.90872 8.7333,2.43328 11.6666,3.38791 13.6634,4.4466 51.267,10.58344 73.2998,11.96234 7.3148,0.4578 13.415,0.9475 13.556,1.08823 0.6557,0.65436 21.0449,-0.35973 31.8109,-1.58219 z"
     id="path74"
     inkscape:connector-curvature="0" />
</svg>
