<?xml version="1.0" encoding="UTF-8" standalone="no"?>
<!-- Created with Inkscape (http://www.inkscape.org/) -->

<svg
   xmlns:dc="http://purl.org/dc/elements/1.1/"
   xmlns:cc="http://creativecommons.org/ns#"
   xmlns:rdf="http://www.w3.org/1999/02/22-rdf-syntax-ns#"
   xmlns:svg="http://www.w3.org/2000/svg"
   xmlns="http://www.w3.org/2000/svg"
   xmlns:sodipodi="http://sodipodi.sourceforge.net/DTD/sodipodi-0.dtd"
   xmlns:inkscape="http://www.inkscape.org/namespaces/inkscape"
   version="1.1"
   id="svg355"
   width="1306.3313"
   height="746.40662"
   viewBox="0 0 1306.3313 746.40662"
   sodipodi:docname="vk-icon.svg"
   inkscape:version="0.92.4 (unknown)">
  <path
     style="stroke-width:1.33333337"
     d="M 600.08457,744.60346 C 511.46377,733.07057 424.01627,692.20745 351.69347,628.53343 264.23377,551.53253 167.54937,408.47475 66.555766,206.63329 26.671866,126.92299 0.92896613,70.12405 0.08216613,59.966613 -0.66413387,51.014961 3.6594661,44.426449 13.624766,39.330016 l 7.8802,-4.03007 h 105.427604 105.4276 l 7.0097,3.168367 c 12.454,5.629181 14.384,8.726669 33.7497,54.164967 35.0836,82.31803 92.6977,183.76531 134.2456,236.38078 14.2405,18.03385 32.8942,35.10193 44.7862,40.97928 8.8727,4.38513 11.6296,5.124 18.8651,5.05593 20.5411,-0.19325 33.2985,-14.56889 41.4517,-46.70972 6.0339,-23.78632 9.8642,-63.91353 9.8357,-103.0396 -0.022,-30.5716 -3.5105,-92.15205 -6.042,-106.66667 -2.9166,-16.72225 -8.8459,-34.579875 -14.6592,-44.149524 -9.3939,-15.464126 -26.7899,-27.640183 -48.5209,-33.961547 -5.4698,-1.59112 -10.1416,-3.482281 -10.3817,-4.20258 -0.8013,-2.403928 15.561,-16.169492 24.0163,-20.204816 C 491.09587,4.4795062 529.88967,-0.04035282 605.02687,2.711784e-4 665.89113,0.03318118 692.59702,2.3843622 719.34121,10.064499 c 23.69615,6.804829 32.66119,17.441586 36.43115,43.224486 1.67972,11.487687 1.60907,20.403296 -1.33141,168.010965 -1.68302,84.48486 -0.2289,102.8427 9.87481,124.66667 8.44315,18.23716 20.04357,27.3446 34.79872,27.32031 19.07907,-0.0315 41.8652,-19.02486 74.13378,-61.79443 46.81261,-62.0466 93.83614,-147.81292 128.03644,-233.525887 4.3891,-11 9.4037,-22.467709 11.1435,-25.483797 4.163,-7.216572 11.3164,-13.368226 17.5622,-15.102699 6.6891,-1.857585 238.6493,-1.88934 251.7031,-0.03445 20.4842,2.910706 26.1865,9.588024 23.5002,27.518349 -2.0132,13.438235 -5.6179,23.446695 -16.7439,46.489744 -21.3073,44.12955 -52.9297,91.35937 -122.7134,183.27953 -52.6677,69.37457 -65.4049,88.39572 -72.1168,107.69588 -4.5901,13.19886 -5.3962,23.10293 -2.7281,33.51769 4.9046,19.14437 14.2885,31.07223 59.8855,76.11976 104.8442,103.58075 155.7221,168.00091 155.5539,196.95793 -0.091,15.63955 -18.5137,31.0404 -43.5555,36.41092 -4.2951,0.92112 -41.2499,1.25218 -109.1215,0.97758 -102.5632,-0.41499 -102.6333,-0.41714 -112.627,-3.46667 -13.8743,-4.23364 -32.6973,-13.36279 -44.91725,-21.78481 -15.71195,-10.82875 -40.28781,-35.40506 -75.09359,-75.09495 -17.36348,-19.8 -37.28062,-41.44829 -44.2603,-48.10732 -28.13344,-26.84095 -48.93379,-34.86824 -70.01223,-27.01919 -10.79424,4.01948 -24.55138,17.97523 -31.99789,32.45984 -11.93316,23.2118 -16.92708,46.5661 -18.9328,88.54011 -1.04481,21.86503 -1.26305,23.15169 -5.32705,31.40684 -4.40794,8.9538 -11.36018,16.03455 -19.93255,20.30103 -4.44008,2.20984 -9.69533,2.4363 -60.85972,2.62262 -39.91555,0.14536 -59.90875,-0.30473 -69.60895,-1.56709 z"
     id="path365"
     inkscape:connector-curvature="0" />
</svg>
